%TF.GenerationSoftware,KiCad,Pcbnew,9.0.7*%
%TF.CreationDate,2026-07-21T18:54:58+05:30*%
%TF.ProjectId,555_Astable_timer,3535355f-4173-4746-9162-6c655f74696d,rev?*%
%TF.SameCoordinates,Original*%
%TF.FileFunction,Copper,L1,Top*%
%TF.FilePolarity,Positive*%
%FSLAX46Y46*%
G04 Gerber Fmt 4.6, Leading zero omitted, Abs format (unit mm)*
G04 Created by KiCad (PCBNEW 9.0.7) date 2026-07-21 18:54:58*
%MOMM*%
%LPD*%
G01*
G04 APERTURE LIST*
G04 Aperture macros list*
%AMRoundRect*
0 Rectangle with rounded corners*
0 $1 Rounding radius*
0 $2 $3 $4 $5 $6 $7 $8 $9 X,Y pos of 4 corners*
0 Add a 4 corners polygon primitive as box body*
4,1,4,$2,$3,$4,$5,$6,$7,$8,$9,$2,$3,0*
0 Add four circle primitives for the rounded corners*
1,1,$1+$1,$2,$3*
1,1,$1+$1,$4,$5*
1,1,$1+$1,$6,$7*
1,1,$1+$1,$8,$9*
0 Add four rect primitives between the rounded corners*
20,1,$1+$1,$2,$3,$4,$5,0*
20,1,$1+$1,$4,$5,$6,$7,0*
20,1,$1+$1,$6,$7,$8,$9,0*
20,1,$1+$1,$8,$9,$2,$3,0*%
G04 Aperture macros list end*
%TA.AperFunction,ComponentPad*%
%ADD10R,0.850000X0.850000*%
%TD*%
%TA.AperFunction,ComponentPad*%
%ADD11C,0.850000*%
%TD*%
%TA.AperFunction,ComponentPad*%
%ADD12C,1.400000*%
%TD*%
%TA.AperFunction,ComponentPad*%
%ADD13C,1.600000*%
%TD*%
%TA.AperFunction,ComponentPad*%
%ADD14RoundRect,0.250000X0.550000X0.550000X-0.550000X0.550000X-0.550000X-0.550000X0.550000X-0.550000X0*%
%TD*%
%TA.AperFunction,ComponentPad*%
%ADD15R,1.800000X1.800000*%
%TD*%
%TA.AperFunction,ComponentPad*%
%ADD16C,1.800000*%
%TD*%
%TA.AperFunction,ComponentPad*%
%ADD17RoundRect,0.250000X-0.550000X-0.550000X0.550000X-0.550000X0.550000X0.550000X-0.550000X0.550000X0*%
%TD*%
%TA.AperFunction,Conductor*%
%ADD18C,0.200000*%
%TD*%
G04 APERTURE END LIST*
D10*
%TO.P,V1,1*%
%TO.N,VCC*%
X184851000Y-85601000D03*
D11*
%TO.P,V1,2*%
%TO.N,GND*%
X184851000Y-84601000D03*
%TD*%
D12*
%TO.P,R1,2*%
%TO.N,/DISCHARGE*%
X166000000Y-96420000D03*
%TO.P,R1,1*%
%TO.N,VCC*%
X166000000Y-101500000D03*
%TD*%
D13*
%TO.P,U2,8,VCC*%
%TO.N,VCC*%
X171185000Y-103390000D03*
%TO.P,U2,7,DISCH*%
%TO.N,/DISCHARGE*%
X171185000Y-100850000D03*
%TO.P,U2,6,THRES*%
%TO.N,/TIMING*%
X171185000Y-88150000D03*
%TO.P,U2,5,CONT*%
%TO.N,Net-(U2-CONT)*%
X171185000Y-85610000D03*
%TO.P,U2,4,~{RST}*%
%TO.N,VCC*%
X178805000Y-85610000D03*
%TO.P,U2,3,OUT*%
%TO.N,/OUT*%
X178805000Y-88150000D03*
%TO.P,U2,2,TRIG*%
%TO.N,/TIMING*%
X178805000Y-100850000D03*
D14*
%TO.P,U2,1,GND*%
%TO.N,GND*%
X178805000Y-103390000D03*
%TD*%
D12*
%TO.P,R2,1*%
%TO.N,/DISCHARGE*%
X166000000Y-93540000D03*
%TO.P,R2,2*%
%TO.N,/TIMING*%
X166000000Y-88460000D03*
%TD*%
D15*
%TO.P,D1,1,K*%
%TO.N,GND*%
X182710000Y-100250000D03*
D16*
%TO.P,D1,2,A*%
%TO.N,Net-(D1-A)*%
X185250000Y-100250000D03*
%TD*%
D17*
%TO.P,C1,1*%
%TO.N,/TIMING*%
X166000000Y-82500000D03*
D13*
%TO.P,C1,2*%
%TO.N,GND*%
X168000000Y-82500000D03*
%TD*%
%TO.P,C2,2*%
%TO.N,GND*%
X177500000Y-82500000D03*
%TO.P,C2,1*%
%TO.N,Net-(U2-CONT)*%
X172500000Y-82500000D03*
%TD*%
%TO.P,C3,1*%
%TO.N,VCC*%
X172500000Y-107000000D03*
%TO.P,C3,2*%
%TO.N,GND*%
X177500000Y-107000000D03*
%TD*%
D12*
%TO.P,R3,1*%
%TO.N,/OUT*%
X185250000Y-89420000D03*
%TO.P,R3,2*%
%TO.N,Net-(D1-A)*%
X185250000Y-94500000D03*
%TD*%
D18*
%TO.N,GND*%
X178805000Y-105695000D02*
X177500000Y-107000000D01*
X178805000Y-103390000D02*
X178805000Y-105695000D01*
%TO.N,VCC*%
X171185000Y-105685000D02*
X172500000Y-107000000D01*
X171185000Y-103390000D02*
X171185000Y-105685000D01*
%TO.N,GND*%
X182710000Y-95624372D02*
X182710000Y-100250000D01*
X186251000Y-85501000D02*
X186251000Y-92083372D01*
X185351000Y-84601000D02*
X186251000Y-85501000D01*
X184851000Y-84601000D02*
X185351000Y-84601000D01*
X186251000Y-92083372D02*
X182710000Y-95624372D01*
X181945000Y-100250000D02*
X182710000Y-100250000D01*
X178805000Y-103390000D02*
X181945000Y-100250000D01*
%TO.N,VCC*%
X169750000Y-103390000D02*
X171185000Y-103390000D01*
X177704000Y-88606050D02*
X177704000Y-86711000D01*
X179906000Y-90808050D02*
X177704000Y-88606050D01*
X179906000Y-101306050D02*
X179906000Y-90808050D01*
X179261050Y-101951000D02*
X179906000Y-101306050D01*
X177704000Y-86711000D02*
X178805000Y-85610000D01*
X172624000Y-101951000D02*
X179261050Y-101951000D01*
X171185000Y-103390000D02*
X172624000Y-101951000D01*
%TO.N,GND*%
X176399000Y-81399000D02*
X177500000Y-82500000D01*
X169101000Y-81399000D02*
X176399000Y-81399000D01*
X168000000Y-82500000D02*
X169101000Y-81399000D01*
%TO.N,/TIMING*%
X166000000Y-88460000D02*
X166000000Y-82500000D01*
X170875000Y-88460000D02*
X171185000Y-88150000D01*
X166000000Y-88460000D02*
X170875000Y-88460000D01*
%TO.N,GND*%
X179601000Y-84601000D02*
X177500000Y-82500000D01*
X184851000Y-84601000D02*
X179601000Y-84601000D01*
%TO.N,VCC*%
X184342000Y-85610000D02*
X178805000Y-85610000D01*
X184351000Y-85601000D02*
X184342000Y-85610000D01*
X184851000Y-85601000D02*
X184351000Y-85601000D01*
%TO.N,Net-(U2-CONT)*%
X171185000Y-83815000D02*
X172500000Y-82500000D01*
X171185000Y-85610000D02*
X171185000Y-83815000D01*
%TO.N,/OUT*%
X180075000Y-89420000D02*
X178805000Y-88150000D01*
X185250000Y-89420000D02*
X180075000Y-89420000D01*
%TO.N,Net-(D1-A)*%
X185250000Y-100250000D02*
X185250000Y-94500000D01*
%TO.N,/DISCHARGE*%
X171185000Y-98725000D02*
X166000000Y-93540000D01*
X171185000Y-100850000D02*
X171185000Y-98725000D01*
X166755000Y-96420000D02*
X166000000Y-96420000D01*
X171185000Y-100850000D02*
X166755000Y-96420000D01*
%TO.N,/TIMING*%
X178805000Y-95770000D02*
X171185000Y-88150000D01*
X178805000Y-100850000D02*
X178805000Y-95770000D01*
%TO.N,VCC*%
X168140000Y-103390000D02*
X169750000Y-103390000D01*
X166250000Y-101500000D02*
X168140000Y-103390000D01*
X166000000Y-101500000D02*
X166250000Y-101500000D01*
X165875000Y-101625000D02*
X166000000Y-101500000D01*
%TD*%
M02*
