M48
; DRILL file {KiCad 9.0.7} date 2026-07-21T19:18:08+0530
; FORMAT={-:-/ absolute / metric / decimal}
; #@! TF.CreationDate,2026-07-21T19:18:08+05:30
; #@! TF.GenerationSoftware,Kicad,Pcbnew,9.0.7
; #@! TF.FileFunction,Plated,1,2,PTH
FMAT,2
METRIC
; #@! TA.AperFunction,Plated,PTH,ComponentDrill
T1C0.500
; #@! TA.AperFunction,Plated,PTH,ComponentDrill
T2C0.700
; #@! TA.AperFunction,Plated,PTH,ComponentDrill
T3C0.800
; #@! TA.AperFunction,Plated,PTH,ComponentDrill
T4C0.900
%
G90
G05
T1
X184.851Y-84.601
X184.851Y-85.601
T2
X166.0Y-88.46
X166.0Y-93.54
X166.0Y-96.42
X166.0Y-101.5
X185.25Y-89.42
X185.25Y-94.5
T3
X166.0Y-82.5
X168.0Y-82.5
X171.185Y-85.61
X171.185Y-88.15
X171.185Y-100.85
X171.185Y-103.39
X172.5Y-82.5
X172.5Y-107.0
X177.5Y-82.5
X177.5Y-107.0
X178.805Y-85.61
X178.805Y-88.15
X178.805Y-100.85
X178.805Y-103.39
T4
X182.71Y-100.25
X185.25Y-100.25
M30
